<svg id="svg" version="1.1" xmlns="http://www.w3.org/2000/svg" xmlns:xlink="http://www.w3.org/1999/xlink" width="400" height="400" viewBox="0, 0, 400,400"><g id="svgg"><path id="path0" d="M198.600 33.184 C 197.940 33.361,193.228 33.527,188.129 33.553 C 179.871 33.595,178.781 33.677,178.157 34.300 C 177.587 34.870,176.564 35.027,172.635 35.145 C 168.460 35.270,167.741 35.391,167.284 36.045 C 166.855 36.657,166.248 36.800,164.074 36.800 C 161.826 36.800,161.312 36.929,160.893 37.600 C 160.490 38.245,159.960 38.400,158.160 38.400 C 156.532 38.400,155.650 38.617,154.909 39.200 C 154.225 39.738,153.286 40.000,152.042 40.000 C 150.626 40.000,150.075 40.187,149.693 40.800 C 149.318 41.400,148.760 41.600,147.459 41.600 C 146.232 41.600,145.512 41.834,145.000 42.400 C 144.499 42.954,143.768 43.200,142.627 43.200 C 141.473 43.200,140.772 43.440,140.293 44.000 C 139.916 44.440,139.184 44.800,138.666 44.800 C 138.148 44.800,137.398 45.160,137.000 45.600 C 136.602 46.040,135.882 46.400,135.400 46.400 C 134.918 46.400,134.198 46.760,133.800 47.200 C 133.295 47.758,132.568 48.000,131.400 48.000 C 130.232 48.000,129.505 48.242,129.000 48.800 C 128.602 49.240,127.876 49.600,127.387 49.600 C 126.898 49.600,126.283 49.858,126.021 50.174 C 125.759 50.490,125.030 50.862,124.400 51.000 C 123.770 51.138,123.050 51.498,122.800 51.800 C 122.550 52.102,121.844 52.458,121.233 52.593 C 120.621 52.727,119.519 53.459,118.782 54.218 C 118.046 54.978,117.056 55.600,116.584 55.600 C 116.111 55.600,115.381 55.981,114.962 56.446 C 114.543 56.911,113.840 57.459,113.400 57.663 C 111.905 58.357,110.772 59.087,109.859 59.944 C 109.358 60.415,108.676 60.800,108.342 60.800 C 108.009 60.800,106.654 61.779,105.331 62.977 C 104.008 64.174,102.472 65.267,101.918 65.406 C 101.363 65.545,99.887 66.726,98.637 68.030 C 97.327 69.396,96.021 70.400,95.554 70.400 C 94.631 70.400,74.800 89.782,74.800 90.684 C 74.800 91.543,73.263 93.456,69.900 96.785 C 68.109 98.557,66.800 100.187,66.800 100.645 C 66.800 101.081,66.080 102.141,65.200 103.000 C 64.320 103.859,63.600 104.939,63.600 105.400 C 63.600 105.861,62.880 106.941,62.000 107.800 C 61.120 108.659,60.400 109.701,60.400 110.114 C 60.400 110.527,59.770 111.634,59.000 112.574 C 58.230 113.514,57.600 114.547,57.600 114.871 C 57.600 115.195,57.150 115.883,56.600 116.400 C 56.050 116.917,55.600 117.730,55.600 118.208 C 55.600 118.685,55.240 119.402,54.800 119.800 C 54.360 120.198,54.000 120.918,54.000 121.400 C 54.000 121.882,53.640 122.602,53.200 123.000 C 52.760 123.398,52.400 124.106,52.400 124.573 C 52.400 125.040,52.040 125.730,51.600 126.107 C 51.160 126.484,50.800 127.222,50.800 127.747 C 50.800 128.272,50.530 128.926,50.200 129.200 C 49.870 129.474,49.600 130.098,49.600 130.587 C 49.600 131.076,49.240 131.802,48.800 132.200 C 48.360 132.598,47.999 133.301,47.997 133.762 C 47.996 134.223,47.637 135.140,47.200 135.800 C 46.763 136.460,46.404 137.557,46.403 138.238 C 46.401 138.965,46.070 139.775,45.600 140.200 C 45.042 140.705,44.800 141.432,44.800 142.600 C 44.800 143.768,44.558 144.495,44.000 145.000 C 43.434 145.512,43.200 146.232,43.200 147.459 C 43.200 148.760,43.000 149.318,42.400 149.693 C 41.782 150.079,41.600 150.626,41.600 152.093 C 41.600 153.560,41.418 154.107,40.800 154.493 C 40.128 154.912,40.000 155.426,40.000 157.693 C 40.000 159.960,39.872 160.473,39.200 160.893 C 38.499 161.331,38.400 161.826,38.400 164.893 C 38.400 167.960,38.301 168.455,37.600 168.893 C 36.882 169.342,36.800 169.826,36.800 173.642 C 36.800 177.286,36.686 178.037,36.000 178.909 C 34.834 180.392,34.741 217.230,35.900 218.509 C 36.470 219.138,36.625 220.205,36.733 224.244 C 36.850 228.649,36.952 229.253,37.633 229.617 C 38.301 229.975,38.400 230.488,38.400 233.600 C 38.400 236.762,38.492 237.221,39.200 237.600 C 39.882 237.965,40.000 238.438,40.000 240.800 C 40.000 243.162,40.118 243.635,40.800 244.000 C 41.434 244.339,41.600 244.838,41.600 246.400 C 41.600 247.962,41.766 248.461,42.400 248.800 C 43.027 249.135,43.200 249.638,43.200 251.118 C 43.200 252.574,43.383 253.122,44.000 253.507 C 44.618 253.893,44.800 254.440,44.800 255.907 C 44.800 257.374,44.982 257.921,45.600 258.307 C 46.065 258.597,46.400 259.240,46.400 259.840 C 46.400 260.409,46.760 261.331,47.200 261.891 C 47.666 262.483,48.000 263.514,48.000 264.358 C 48.000 265.374,48.239 265.957,48.800 266.307 C 49.313 266.628,49.600 267.240,49.600 268.016 C 49.600 268.722,49.850 269.321,50.200 269.455 C 50.541 269.586,50.800 270.183,50.800 270.839 C 50.800 271.560,51.100 272.181,51.600 272.493 C 52.082 272.794,52.400 273.426,52.400 274.082 C 52.400 274.762,52.701 275.333,53.200 275.600 C 53.669 275.851,54.000 276.438,54.000 277.018 C 54.000 277.562,54.360 278.316,54.800 278.693 C 55.240 279.070,55.600 279.753,55.600 280.211 C 55.600 280.669,56.220 281.720,56.977 282.547 C 57.735 283.375,58.554 284.654,58.797 285.390 C 59.040 286.127,59.500 286.830,59.819 286.952 C 60.139 287.075,60.400 287.617,60.400 288.157 C 60.400 288.774,60.994 289.721,62.000 290.707 C 62.880 291.569,63.600 292.627,63.600 293.056 C 63.600 293.486,64.680 294.976,66.000 296.367 C 67.320 297.759,68.401 299.190,68.402 299.549 C 68.403 299.907,69.838 301.640,71.592 303.400 C 73.559 305.375,74.784 306.928,74.790 307.457 C 74.804 308.638,92.987 326.798,94.161 326.804 C 94.676 326.807,96.223 328.044,98.163 330.004 C 99.903 331.762,101.613 333.201,101.963 333.202 C 102.314 333.203,103.246 333.788,104.036 334.502 C 105.949 336.230,107.871 337.600,108.384 337.600 C 108.613 337.600,109.119 337.919,109.508 338.308 C 109.898 338.698,111.113 339.534,112.208 340.167 C 113.304 340.800,114.522 341.651,114.916 342.059 C 115.309 342.466,116.034 342.800,116.527 342.800 C 117.019 342.800,117.730 343.160,118.107 343.600 C 118.484 344.040,119.126 344.400,119.534 344.400 C 119.942 344.400,120.602 344.760,121.000 345.200 C 121.398 345.640,122.043 346.000,122.433 346.000 C 122.824 346.000,123.386 346.225,123.682 346.500 C 125.132 347.844,126.989 348.880,128.323 349.090 C 129.135 349.218,130.229 349.655,130.754 350.061 C 131.279 350.468,132.094 350.800,132.565 350.800 C 133.036 350.800,133.730 351.160,134.107 351.600 C 134.484 352.040,135.204 352.400,135.707 352.400 C 136.210 352.400,136.930 352.760,137.307 353.200 C 137.684 353.640,138.406 354.000,138.912 354.000 C 139.417 354.000,140.537 354.360,141.400 354.800 C 142.263 355.240,143.341 355.600,143.796 355.600 C 144.250 355.600,144.930 355.960,145.307 356.400 C 145.803 356.979,146.487 357.200,147.782 357.200 C 149.162 357.200,149.670 357.383,150.000 358.000 C 150.359 358.670,150.838 358.800,152.952 358.800 C 154.968 358.800,155.622 358.961,156.200 359.600 C 156.741 360.197,157.432 360.400,158.930 360.400 C 160.243 360.400,161.192 360.631,161.675 361.068 C 162.113 361.464,163.344 361.808,164.706 361.915 C 166.027 362.018,167.314 362.371,167.740 362.746 C 168.310 363.247,169.555 363.429,173.140 363.538 C 176.758 363.648,177.966 363.828,178.541 364.340 C 179.170 364.899,180.845 365.043,189.541 365.285 C 206.930 365.769,221.548 365.334,222.690 364.300 C 223.322 363.728,224.224 363.600,227.631 363.599 C 231.092 363.597,232.023 363.461,233.110 362.799 C 233.940 362.292,235.125 362.000,236.348 362.000 C 237.768 362.000,238.467 361.789,239.000 361.200 C 239.578 360.562,240.232 360.400,242.239 360.400 C 244.226 360.400,244.865 360.245,245.277 359.664 C 245.661 359.123,246.538 358.860,248.580 358.671 C 250.443 358.500,251.472 358.215,251.700 357.808 C 251.932 357.392,252.664 357.200,254.016 357.200 C 255.560 357.200,256.103 357.025,256.493 356.400 C 256.796 355.915,257.426 355.600,258.093 355.600 C 258.760 355.600,259.390 355.285,259.693 354.800 C 260.079 354.182,260.626 354.000,262.093 354.000 C 263.560 354.000,264.107 353.818,264.493 353.200 C 264.796 352.715,265.426 352.400,266.093 352.400 C 266.760 352.400,267.390 352.085,267.693 351.600 C 267.996 351.115,268.626 350.800,269.293 350.800 C 269.960 350.800,270.590 350.485,270.893 350.000 C 271.185 349.533,271.826 349.200,272.434 349.200 C 273.007 349.200,273.802 348.840,274.200 348.400 C 274.598 347.960,275.340 347.600,275.848 347.600 C 276.362 347.600,276.962 347.246,277.200 346.800 C 277.479 346.279,278.038 346.000,278.800 346.000 C 279.562 346.000,280.121 345.721,280.400 345.200 C 280.679 344.679,281.238 344.400,282.000 344.400 C 282.762 344.400,283.321 344.121,283.600 343.600 C 283.835 343.160,284.436 342.800,284.933 342.800 C 285.446 342.800,286.562 342.105,287.504 341.200 C 288.450 340.291,289.564 339.598,290.085 339.596 C 290.648 339.594,291.539 338.979,292.400 338.000 C 293.298 336.979,294.145 336.406,294.761 336.404 C 295.358 336.401,296.269 335.815,297.161 334.860 C 297.953 334.013,299.050 333.206,299.600 333.067 C 300.150 332.928,302.382 331.101,304.559 329.007 C 306.736 326.913,308.691 325.200,308.903 325.200 C 310.229 325.200,325.200 310.404,325.200 309.093 C 325.200 308.600,326.404 307.083,328.209 305.301 C 329.864 303.668,331.462 301.747,331.760 301.033 C 332.059 300.320,333.224 298.814,334.351 297.687 C 335.478 296.560,336.400 295.306,336.400 294.900 C 336.400 294.493,337.120 293.412,338.000 292.496 C 338.880 291.580,339.600 290.500,339.600 290.096 C 339.600 289.692,340.320 288.612,341.200 287.696 C 342.197 286.658,342.800 285.654,342.800 285.030 C 342.800 284.438,343.127 283.853,343.600 283.600 C 344.096 283.334,344.401 282.760,344.404 282.086 C 344.407 281.324,344.883 280.582,346.000 279.600 C 347.117 278.618,347.593 277.876,347.596 277.114 C 347.599 276.440,347.904 275.866,348.400 275.600 C 348.899 275.333,349.200 274.762,349.200 274.082 C 349.200 273.426,349.518 272.794,350.000 272.493 C 350.513 272.172,350.800 271.560,350.800 270.784 C 350.800 270.110,351.051 269.479,351.367 269.357 C 351.695 269.231,352.053 268.271,352.218 267.072 C 352.400 265.743,352.770 264.816,353.251 264.479 C 353.669 264.187,354.000 263.477,354.000 262.874 C 354.000 262.226,354.321 261.592,354.800 261.293 C 355.400 260.918,355.600 260.360,355.600 259.059 C 355.600 257.832,355.834 257.112,356.400 256.600 C 356.904 256.144,357.200 255.368,357.200 254.501 C 357.200 253.732,357.552 252.678,358.000 252.109 C 358.440 251.550,358.800 250.636,358.800 250.078 C 358.800 249.520,359.086 248.747,359.435 248.361 C 359.803 247.954,360.166 246.595,360.297 245.130 C 360.461 243.306,360.730 242.454,361.262 242.077 C 361.854 241.658,362.000 241.024,362.000 238.874 C 362.000 236.626,362.129 236.112,362.800 235.693 C 363.500 235.256,363.600 234.760,363.600 231.728 C 363.600 229.005,363.748 228.099,364.292 227.499 C 364.847 226.885,365.024 225.695,365.192 221.467 C 365.356 217.305,365.551 215.978,366.118 215.143 C 367.193 213.560,366.996 183.568,365.900 181.896 C 365.331 181.028,365.200 179.926,365.200 176.017 C 365.200 171.640,365.128 171.162,364.400 170.707 C 363.699 170.269,363.600 169.774,363.600 166.707 C 363.600 163.640,363.501 163.145,362.800 162.707 C 362.129 162.288,362.000 161.774,362.000 159.526 C 362.000 157.368,361.855 156.743,361.257 156.323 C 360.729 155.951,360.459 155.137,360.324 153.506 C 360.220 152.245,359.857 150.895,359.517 150.506 C 359.176 150.118,358.777 148.960,358.629 147.933 C 358.482 146.906,358.100 145.849,357.780 145.584 C 357.461 145.319,357.200 144.608,357.200 144.005 C 357.200 143.402,356.840 142.450,356.400 141.891 C 355.936 141.301,355.600 140.268,355.600 139.433 C 355.600 138.487,355.325 137.757,354.800 137.307 C 354.360 136.930,354.000 136.219,354.000 135.727 C 354.000 135.234,353.657 134.509,353.237 134.116 C 352.817 133.722,352.348 132.551,352.194 131.513 C 352.039 130.475,351.663 129.418,351.357 129.164 C 351.050 128.910,350.800 128.272,350.800 127.747 C 350.800 127.222,350.440 126.484,350.000 126.107 C 349.560 125.730,349.200 125.010,349.200 124.507 C 349.200 124.004,348.840 123.284,348.400 122.907 C 347.960 122.530,347.600 121.845,347.600 121.384 C 347.600 120.923,346.970 119.838,346.199 118.973 C 345.429 118.108,344.610 116.831,344.380 116.135 C 344.150 115.440,343.700 114.770,343.381 114.648 C 343.061 114.525,342.800 114.000,342.800 113.480 C 342.800 112.941,342.116 111.777,341.206 110.768 C 340.329 109.796,339.609 108.692,339.606 108.316 C 339.603 107.939,339.266 107.309,338.859 106.916 C 338.451 106.522,337.599 105.300,336.966 104.200 C 336.333 103.100,335.226 101.609,334.507 100.887 C 333.788 100.164,333.199 99.264,333.198 98.887 C 333.197 98.509,331.401 96.400,329.207 94.200 C 327.012 92.000,325.213 89.922,325.209 89.581 C 325.193 88.483,311.289 74.022,309.400 73.139 C 307.509 72.256,306.558 71.537,304.238 69.237 C 302.885 67.897,301.490 66.800,301.138 66.800 C 300.785 66.800,299.359 65.720,297.967 64.400 C 296.576 63.080,295.114 62.000,294.719 62.000 C 294.324 62.000,293.259 61.280,292.352 60.400 C 291.445 59.520,290.337 58.800,289.889 58.800 C 289.442 58.800,288.369 58.080,287.507 57.200 C 286.618 56.293,285.557 55.600,285.058 55.600 C 284.574 55.600,283.870 55.240,283.493 54.800 C 283.116 54.360,282.457 54.000,282.028 54.000 C 281.598 54.000,281.125 53.802,280.975 53.559 C 280.825 53.317,280.139 52.864,279.451 52.553 C 278.763 52.242,277.930 51.825,277.600 51.626 C 275.976 50.646,273.490 49.600,272.784 49.600 C 272.348 49.600,271.684 49.240,271.307 48.800 C 270.928 48.357,270.127 48.000,269.514 48.000 C 268.840 48.000,268.211 47.687,267.907 47.200 C 267.608 46.721,266.974 46.400,266.326 46.400 C 265.732 46.400,265.010 46.068,264.723 45.663 C 264.414 45.228,263.491 44.832,262.469 44.697 C 261.517 44.571,260.423 44.183,260.037 43.834 C 259.652 43.485,258.858 43.200,258.272 43.200 C 257.640 43.200,257.004 42.875,256.707 42.400 C 256.322 41.784,255.774 41.600,254.319 41.600 C 252.994 41.600,252.218 41.376,251.716 40.850 C 251.234 40.345,250.249 40.040,248.706 39.917 C 247.347 39.809,246.112 39.463,245.675 39.068 C 245.209 38.646,244.253 38.400,243.083 38.400 C 241.638 38.400,241.134 38.223,240.800 37.600 C 240.436 36.920,239.962 36.800,237.648 36.800 C 235.432 36.800,234.789 36.651,234.200 36.000 C 233.555 35.287,232.968 35.200,228.800 35.200 C 224.682 35.200,224.040 35.108,223.422 34.425 C 222.773 33.707,221.974 33.636,212.660 33.465 C 207.127 33.363,201.970 33.186,201.200 33.071 C 200.430 32.957,199.260 33.007,198.600 33.184 M161.250 75.900 C 161.799 76.505,162.467 77.450,162.732 78.000 C 162.998 78.550,163.650 79.720,164.180 80.600 C 164.711 81.480,165.429 82.740,165.775 83.400 C 166.122 84.060,166.848 85.320,167.389 86.200 C 167.929 87.080,168.661 88.340,169.013 89.000 C 169.366 89.660,170.091 90.920,170.625 91.800 C 171.158 92.680,171.878 93.940,172.225 94.600 C 172.571 95.260,173.281 96.520,173.802 97.400 C 174.322 98.280,175.000 99.450,175.309 100.000 C 176.189 101.571,177.652 104.099,178.357 105.267 C 178.711 105.853,180.494 108.913,182.319 112.067 C 184.145 115.220,185.804 118.070,186.006 118.400 C 186.208 118.730,187.325 120.678,188.487 122.729 C 189.649 124.780,190.993 127.120,191.473 127.929 C 191.952 128.738,192.627 129.940,192.971 130.600 C 193.315 131.260,193.957 132.385,194.398 133.100 C 195.862 135.473,196.746 136.972,198.409 139.900 C 199.315 141.495,200.183 142.800,200.339 142.800 C 200.838 142.800,202.400 141.568,202.400 141.174 C 202.400 140.847,203.942 138.073,207.462 132.071 C 207.937 131.262,208.612 130.105,208.962 129.500 C 209.313 128.895,209.887 127.905,210.238 127.300 C 210.588 126.695,211.263 125.540,211.738 124.733 C 212.212 123.926,214.094 120.686,215.919 117.533 C 217.745 114.380,219.404 111.530,219.606 111.200 C 219.808 110.870,220.889 108.980,222.008 107.000 C 223.127 105.020,224.205 103.130,224.404 102.800 C 224.602 102.470,225.987 100.084,227.482 97.499 C 228.977 94.913,230.604 92.123,231.097 91.299 C 231.591 90.474,232.278 89.260,232.625 88.600 C 232.971 87.940,233.691 86.680,234.225 85.800 C 234.758 84.920,235.478 83.660,235.825 83.000 C 236.171 82.340,236.891 81.080,237.425 80.200 C 237.958 79.320,238.663 78.027,238.991 77.327 C 239.830 75.538,241.010 74.793,242.335 75.215 C 245.044 76.078,247.088 76.860,248.062 77.405 C 248.646 77.732,249.346 78.000,249.618 78.000 C 250.342 78.000,255.772 80.560,261.597 83.649 C 266.584 86.293,266.726 85.270,259.727 97.122 C 259.248 97.935,258.566 99.140,258.213 99.800 C 257.861 100.460,257.129 101.720,256.589 102.600 C 256.048 103.480,255.322 104.740,254.975 105.400 C 254.629 106.060,253.952 107.259,253.473 108.064 C 251.908 110.690,250.142 113.787,249.860 114.400 C 249.708 114.730,249.150 115.720,248.619 116.600 C 248.089 117.480,247.374 118.740,247.030 119.400 C 246.686 120.060,245.951 121.320,245.396 122.200 C 244.840 123.080,244.204 124.160,243.981 124.600 C 243.758 125.040,242.153 127.827,240.416 130.793 C 238.093 134.757,237.367 136.319,237.674 136.690 C 238.001 137.083,243.534 137.217,262.920 137.297 L 287.746 137.400 288.646 139.000 C 289.140 139.880,289.827 141.140,290.172 141.800 C 290.516 142.460,291.150 143.540,291.579 144.200 C 292.008 144.860,293.095 146.660,293.993 148.200 C 294.891 149.740,295.790 151.270,295.991 151.600 C 299.467 157.327,299.553 157.653,298.200 160.037 C 297.650 161.007,296.918 162.340,296.573 163.000 C 296.227 163.660,295.509 164.920,294.975 165.800 C 294.442 166.680,293.750 167.940,293.438 168.600 C 293.126 169.260,292.720 169.948,292.535 170.130 C 292.351 170.311,291.570 171.604,290.800 173.002 C 290.030 174.401,286.224 181.092,282.342 187.872 C 278.460 194.653,275.163 200.605,275.015 201.100 L 274.746 202.000 301.947 202.000 C 318.653 202.000,329.544 202.151,330.174 202.390 C 331.347 202.836,331.548 205.171,330.813 209.800 C 330.603 211.120,330.235 214.180,329.996 216.600 C 329.757 219.020,329.317 221.990,329.019 223.200 C 328.720 224.410,328.361 226.239,328.219 227.265 C 327.870 229.790,331.051 229.595,289.467 229.640 C 268.970 229.662,251.818 229.797,251.352 229.940 C 250.304 230.261,250.430 230.539,256.313 240.884 C 257.475 242.928,258.591 244.870,258.793 245.200 C 258.995 245.530,260.204 247.569,261.480 249.732 C 262.756 251.894,264.193 254.324,264.673 255.132 C 265.152 255.939,265.829 257.140,266.175 257.800 C 266.522 258.460,267.242 259.720,267.775 260.600 C 268.309 261.480,269.034 262.740,269.387 263.400 C 269.739 264.060,270.471 265.320,271.011 266.200 C 271.552 267.080,272.281 268.340,272.632 269.000 C 272.982 269.660,273.578 270.740,273.955 271.400 C 274.332 272.060,275.043 273.320,275.535 274.200 C 276.027 275.080,276.861 276.520,277.387 277.400 C 277.914 278.280,278.629 279.540,278.975 280.200 C 279.322 280.860,280.042 282.120,280.575 283.000 C 281.109 283.880,281.829 285.140,282.175 285.800 C 282.522 286.460,283.242 287.720,283.775 288.600 C 284.309 289.480,285.027 290.740,285.373 291.400 C 285.718 292.060,286.423 293.343,286.941 294.251 C 287.702 295.586,287.796 296.060,287.437 296.731 C 287.020 297.510,276.989 305.754,274.800 307.117 C 270.766 309.628,269.262 310.586,268.316 311.245 C 266.597 312.443,265.325 312.234,264.503 310.618 C 263.917 309.467,260.892 304.255,256.527 296.875 C 256.048 296.064,255.371 294.860,255.025 294.200 C 254.678 293.540,253.958 292.280,253.425 291.400 C 252.891 290.520,252.163 289.260,251.806 288.600 C 251.449 287.940,250.848 286.860,250.470 286.200 C 248.561 282.864,246.051 278.427,244.800 276.178 C 244.030 274.793,243.249 273.511,243.065 273.330 C 242.880 273.148,242.479 272.460,242.173 271.800 C 241.867 271.140,241.388 270.240,241.109 269.800 C 240.830 269.360,240.073 268.140,239.426 267.088 L 238.249 265.176 237.319 266.288 C 236.808 266.900,236.120 267.940,235.792 268.600 C 235.463 269.260,234.754 270.520,234.216 271.400 C 233.679 272.280,233.009 273.450,232.727 274.000 C 232.446 274.550,232.108 275.090,231.976 275.200 C 231.655 275.468,225.275 286.598,223.377 290.200 C 223.029 290.860,222.352 292.060,221.873 292.867 C 220.704 294.831,214.326 305.818,213.717 306.916 C 212.687 308.770,212.472 308.800,200.377 308.800 L 188.906 308.800 187.921 307.300 C 187.380 306.475,186.231 304.568,185.368 303.061 C 184.506 301.555,183.485 299.845,183.099 299.261 C 182.714 298.678,182.116 297.660,181.772 297.000 C 181.427 296.340,180.709 295.080,180.175 294.200 C 179.642 293.320,178.922 292.060,178.575 291.400 C 178.229 290.740,177.515 289.480,176.989 288.600 C 176.463 287.720,175.702 286.370,175.297 285.600 C 174.463 284.012,168.657 273.864,167.319 271.654 C 166.835 270.854,166.312 269.930,166.158 269.600 C 166.004 269.270,165.325 268.129,164.649 267.065 L 163.420 265.130 162.476 266.265 C 161.957 266.889,161.265 267.940,160.939 268.600 C 160.612 269.260,159.913 270.520,159.386 271.400 C 158.859 272.280,158.106 273.580,157.713 274.289 C 157.321 274.998,155.461 278.238,153.580 281.489 C 151.699 284.740,149.940 287.850,149.672 288.400 C 149.404 288.950,148.750 290.120,148.220 291.000 C 147.689 291.880,146.966 293.140,146.613 293.800 C 146.261 294.460,145.573 295.652,145.086 296.450 C 144.599 297.247,143.120 299.736,141.800 301.982 C 140.480 304.227,139.007 306.725,138.527 307.532 C 138.048 308.339,137.388 309.571,137.061 310.268 C 136.183 312.144,135.068 312.609,133.702 311.667 C 131.921 310.440,128.280 308.156,127.208 307.594 C 126.663 307.308,126.016 306.877,125.772 306.637 C 125.527 306.397,124.728 305.750,123.997 305.200 C 122.152 303.813,118.670 301.100,117.976 300.509 C 117.659 300.240,116.775 299.475,116.011 298.809 C 115.247 298.144,114.511 297.600,114.375 297.600 C 113.861 297.600,113.220 295.635,113.648 295.370 C 113.878 295.228,114.411 294.367,114.833 293.456 C 115.255 292.545,116.051 291.080,116.601 290.200 C 117.151 289.320,117.870 288.060,118.199 287.400 C 118.529 286.740,119.158 285.660,119.597 285.000 C 120.036 284.340,120.757 283.080,121.198 282.200 C 121.640 281.320,122.454 279.880,123.007 279.000 C 123.561 278.120,124.200 277.040,124.427 276.600 C 124.655 276.160,125.281 275.080,125.818 274.200 C 126.355 273.320,127.078 272.060,127.425 271.400 C 127.771 270.740,128.491 269.480,129.025 268.600 C 129.558 267.720,130.278 266.460,130.625 265.800 C 130.971 265.140,131.691 263.880,132.225 263.000 C 132.758 262.120,133.478 260.860,133.825 260.200 C 134.171 259.540,134.891 258.280,135.425 257.400 C 135.958 256.520,136.678 255.260,137.025 254.600 C 137.371 253.940,138.048 252.740,138.527 251.933 C 139.007 251.126,140.930 247.826,142.800 244.600 C 144.670 241.374,146.596 238.074,147.081 237.267 C 147.565 236.460,148.093 235.530,148.254 235.200 C 148.415 234.870,148.855 234.150,149.232 233.600 C 150.404 231.891,150.521 230.126,149.482 229.847 C 148.997 229.717,131.811 229.608,111.291 229.605 L 73.983 229.600 73.641 228.700 C 72.949 226.882,72.354 224.103,71.818 220.200 C 71.517 218.000,71.067 214.940,70.820 213.400 C 70.572 211.860,70.421 208.710,70.485 206.400 L 70.600 202.200 98.400 202.000 C 125.915 201.802,126.199 201.792,126.085 201.000 C 125.970 200.203,124.674 197.522,123.053 194.729 C 120.400 190.157,118.102 186.125,117.850 185.600 C 117.691 185.270,117.165 184.340,116.681 183.533 C 116.196 182.726,114.306 179.486,112.481 176.333 C 110.655 173.180,108.997 170.330,108.797 170.000 C 108.597 169.670,107.226 167.240,105.752 164.600 C 104.277 161.960,102.830 159.516,102.536 159.169 C 101.917 158.439,101.825 156.955,102.377 156.614 C 102.585 156.486,103.530 155.015,104.477 153.345 C 105.425 151.675,106.593 149.655,107.073 148.855 C 107.552 148.055,108.227 146.860,108.572 146.200 C 108.916 145.540,109.554 144.460,109.989 143.800 C 111.013 142.247,112.208 140.136,112.990 138.500 L 113.611 137.200 138.618 137.200 C 158.867 137.200,163.663 137.100,163.826 136.676 C 163.992 136.245,160.264 129.380,156.114 122.474 C 155.627 121.663,154.939 120.460,154.587 119.800 C 154.234 119.140,153.509 117.880,152.975 117.000 C 152.442 116.120,151.727 114.860,151.387 114.200 C 151.046 113.540,150.337 112.280,149.811 111.400 C 149.285 110.520,148.571 109.260,148.225 108.600 C 147.878 107.940,147.158 106.680,146.625 105.800 C 146.091 104.920,145.373 103.660,145.029 103.000 C 144.685 102.340,144.066 101.260,143.653 100.600 C 143.239 99.940,141.242 96.549,139.214 93.065 L 135.526 86.731 136.366 85.836 C 136.828 85.344,139.050 83.993,141.303 82.833 C 143.556 81.673,145.670 80.572,146.000 80.386 C 147.067 79.786,151.142 78.000,151.444 78.000 C 151.722 78.000,156.081 76.360,157.800 75.608 C 158.661 75.232,159.662 74.883,160.025 74.832 C 160.149 74.814,160.700 75.295,161.250 75.900 M199.352 146.099 C 199.018 146.815,198.309 148.120,197.775 149.000 C 197.242 149.880,196.522 151.140,196.175 151.800 C 195.829 152.460,195.152 153.661,194.673 154.468 C 194.193 155.275,192.738 157.795,191.439 160.068 C 190.140 162.341,189.001 164.290,188.906 164.400 C 188.811 164.510,177.653 164.690,164.110 164.800 C 137.373 165.017,137.590 164.997,139.110 167.100 C 139.388 167.485,139.895 168.340,140.236 169.000 C 140.576 169.660,141.248 170.862,141.727 171.671 C 142.207 172.480,143.551 174.820,144.713 176.871 C 145.875 178.922,146.988 180.870,147.187 181.200 C 147.385 181.530,150.034 186.091,153.073 191.335 C 156.113 196.579,158.996 201.529,159.479 202.335 C 159.963 203.141,160.552 204.226,160.787 204.747 C 161.023 205.268,161.572 206.147,162.008 206.701 C 163.373 208.436,162.959 209.638,158.395 217.200 C 158.196 217.530,156.826 219.960,155.352 222.600 C 153.877 225.240,152.454 227.670,152.188 228.000 C 150.979 229.500,151.674 229.600,163.358 229.600 L 174.650 229.600 175.618 230.900 C 176.553 232.155,177.217 233.257,178.568 235.800 C 178.919 236.460,179.642 237.720,180.175 238.600 C 180.709 239.480,181.429 240.740,181.775 241.400 C 182.122 242.060,182.842 243.320,183.375 244.200 C 183.909 245.080,184.627 246.340,184.972 247.000 C 185.316 247.660,185.914 248.682,186.299 249.270 C 186.685 249.859,188.854 253.549,191.121 257.470 C 193.387 261.392,195.407 264.870,195.608 265.200 C 195.809 265.530,196.889 267.446,198.008 269.457 C 200.632 274.176,200.751 274.143,204.387 267.660 C 205.949 264.877,207.391 262.330,207.593 262.000 C 207.796 261.670,209.455 258.820,211.281 255.667 C 213.106 252.514,214.988 249.274,215.462 248.467 C 215.937 247.660,216.582 246.550,216.897 246.000 C 217.212 245.450,217.885 244.280,218.394 243.400 C 220.351 240.012,221.170 238.558,221.773 237.400 C 222.117 236.740,222.762 235.660,223.205 235.000 C 223.649 234.340,224.295 233.155,224.641 232.366 C 225.814 229.689,226.247 229.600,238.113 229.600 C 249.647 229.600,250.058 229.521,248.847 227.543 C 248.491 226.962,246.940 224.268,245.400 221.556 C 243.860 218.845,242.380 216.261,242.111 215.813 C 241.842 215.366,241.327 214.373,240.966 213.607 C 240.606 212.840,239.971 211.781,239.556 211.253 C 238.558 209.984,238.575 207.593,239.592 206.301 C 240.028 205.747,240.577 204.868,240.813 204.347 C 241.048 203.826,241.637 202.734,242.121 201.920 C 242.604 201.107,246.240 194.849,250.200 188.015 C 254.160 181.180,257.804 174.916,258.297 174.094 C 258.791 173.272,259.481 172.060,259.832 171.400 C 261.237 168.755,261.914 167.585,262.330 167.084 C 262.570 166.795,262.663 166.164,262.537 165.682 L 262.308 164.806 237.471 164.703 L 212.635 164.600 210.930 161.800 C 209.992 160.260,208.951 158.460,208.616 157.800 C 207.698 155.990,205.402 151.969,204.027 149.762 C 203.355 148.683,202.615 147.330,202.382 146.755 C 201.628 144.888,200.075 144.552,199.352 146.099 " stroke="none" fill="#fa0606" fill-rule="evenodd"></path><path id="path1" d="M0.000 200.000 L 0.000 400.000 200.000 400.000 L 400.000 400.000 400.000 200.000 L 400.000 0.000 200.000 0.000 L 0.000 0.000 0.000 200.000 M212.660 33.465 C 221.974 33.636,222.773 33.707,223.422 34.425 C 224.040 35.108,224.682 35.200,228.800 35.200 C 232.968 35.200,233.555 35.287,234.200 36.000 C 234.789 36.651,235.432 36.800,237.648 36.800 C 239.962 36.800,240.436 36.920,240.800 37.600 C 241.134 38.223,241.638 38.400,243.083 38.400 C 244.253 38.400,245.209 38.646,245.675 39.068 C 246.112 39.463,247.347 39.809,248.706 39.917 C 250.249 40.040,251.234 40.345,251.716 40.850 C 252.218 41.376,252.994 41.600,254.319 41.600 C 255.774 41.600,256.322 41.784,256.707 42.400 C 257.004 42.875,257.640 43.200,258.272 43.200 C 258.858 43.200,259.652 43.485,260.037 43.834 C 260.423 44.183,261.517 44.571,262.469 44.697 C 263.491 44.832,264.414 45.228,264.723 45.663 C 265.010 46.068,265.732 46.400,266.326 46.400 C 266.974 46.400,267.608 46.721,267.907 47.200 C 268.211 47.687,268.840 48.000,269.514 48.000 C 270.127 48.000,270.928 48.357,271.307 48.800 C 271.684 49.240,272.348 49.600,272.784 49.600 C 273.490 49.600,275.976 50.646,277.600 51.626 C 277.930 51.825,278.763 52.242,279.451 52.553 C 280.139 52.864,280.825 53.317,280.975 53.559 C 281.125 53.802,281.598 54.000,282.028 54.000 C 282.457 54.000,283.116 54.360,283.493 54.800 C 283.870 55.240,284.574 55.600,285.058 55.600 C 285.557 55.600,286.618 56.293,287.507 57.200 C 288.369 58.080,289.442 58.800,289.889 58.800 C 290.337 58.800,291.445 59.520,292.352 60.400 C 293.259 61.280,294.324 62.000,294.719 62.000 C 295.114 62.000,296.576 63.080,297.967 64.400 C 299.359 65.720,300.785 66.800,301.138 66.800 C 301.490 66.800,302.885 67.897,304.238 69.237 C 306.558 71.537,307.509 72.256,309.400 73.139 C 311.289 74.022,325.193 88.483,325.209 89.581 C 325.213 89.922,327.012 92.000,329.207 94.200 C 331.401 96.400,333.197 98.509,333.198 98.887 C 333.199 99.264,333.788 100.164,334.507 100.887 C 335.226 101.609,336.333 103.100,336.966 104.200 C 337.599 105.300,338.451 106.522,338.859 106.916 C 339.266 107.309,339.603 107.939,339.606 108.316 C 339.609 108.692,340.329 109.796,341.206 110.768 C 342.116 111.777,342.800 112.941,342.800 113.480 C 342.800 114.000,343.061 114.525,343.381 114.648 C 343.700 114.770,344.150 115.440,344.380 116.135 C 344.610 116.831,345.429 118.108,346.199 118.973 C 346.970 119.838,347.600 120.923,347.600 121.384 C 347.600 121.845,347.960 122.530,348.400 122.907 C 348.840 123.284,349.200 124.004,349.200 124.507 C 349.200 125.010,349.560 125.730,350.000 126.107 C 350.440 126.484,350.800 127.222,350.800 127.747 C 350.800 128.272,351.050 128.910,351.357 129.164 C 351.663 129.418,352.039 130.475,352.194 131.513 C 352.348 132.551,352.817 133.722,353.237 134.116 C 353.657 134.509,354.000 135.234,354.000 135.727 C 354.000 136.219,354.360 136.930,354.800 137.307 C 355.325 137.757,355.600 138.487,355.600 139.433 C 355.600 140.268,355.936 141.301,356.400 141.891 C 356.840 142.450,357.200 143.402,357.200 144.005 C 357.200 144.608,357.461 145.319,357.780 145.584 C 358.100 145.849,358.482 146.906,358.629 147.933 C 358.777 148.960,359.176 150.118,359.517 150.506 C 359.857 150.895,360.220 152.245,360.324 153.506 C 360.459 155.137,360.729 155.951,361.257 156.323 C 361.855 156.743,362.000 157.368,362.000 159.526 C 362.000 161.774,362.129 162.288,362.800 162.707 C 363.501 163.145,363.600 163.640,363.600 166.707 C 363.600 169.774,363.699 170.269,364.400 170.707 C 365.128 171.162,365.200 171.640,365.200 176.017 C 365.200 179.926,365.331 181.028,365.900 181.896 C 366.996 183.568,367.193 213.560,366.118 215.143 C 365.551 215.978,365.356 217.305,365.192 221.467 C 365.024 225.695,364.847 226.885,364.292 227.499 C 363.748 228.099,363.600 229.005,363.600 231.728 C 363.600 234.760,363.500 235.256,362.800 235.693 C 362.129 236.112,362.000 236.626,362.000 238.874 C 362.000 241.024,361.854 241.658,361.262 242.077 C 360.730 242.454,360.461 243.306,360.297 245.130 C 360.166 246.595,359.803 247.954,359.435 248.361 C 359.086 248.747,358.800 249.520,358.800 250.078 C 358.800 250.636,358.440 251.550,358.000 252.109 C 357.552 252.678,357.200 253.732,357.200 254.501 C 357.200 255.368,356.904 256.144,356.400 256.600 C 355.834 257.112,355.600 257.832,355.600 259.059 C 355.600 260.360,355.400 260.918,354.800 261.293 C 354.321 261.592,354.000 262.226,354.000 262.874 C 354.000 263.477,353.669 264.187,353.251 264.479 C 352.770 264.816,352.400 265.743,352.218 267.072 C 352.053 268.271,351.695 269.231,351.367 269.357 C 351.051 269.479,350.800 270.110,350.800 270.784 C 350.800 271.560,350.513 272.172,350.000 272.493 C 349.518 272.794,349.200 273.426,349.200 274.082 C 349.200 274.762,348.899 275.333,348.400 275.600 C 347.904 275.866,347.599 276.440,347.596 277.114 C 347.593 277.876,347.117 278.618,346.000 279.600 C 344.883 280.582,344.407 281.324,344.404 282.086 C 344.401 282.760,344.096 283.334,343.600 283.600 C 343.127 283.853,342.800 284.438,342.800 285.030 C 342.800 285.654,342.197 286.658,341.200 287.696 C 340.320 288.612,339.600 289.692,339.600 290.096 C 339.600 290.500,338.880 291.580,338.000 292.496 C 337.120 293.412,336.400 294.493,336.400 294.900 C 336.400 295.306,335.478 296.560,334.351 297.687 C 333.224 298.814,332.059 300.320,331.760 301.033 C 331.462 301.747,329.864 303.668,328.209 305.301 C 326.404 307.083,325.200 308.600,325.200 309.093 C 325.200 310.404,310.229 325.200,308.903 325.200 C 308.691 325.200,306.736 326.913,304.559 329.007 C 302.382 331.101,300.150 332.928,299.600 333.067 C 299.050 333.206,297.953 334.013,297.161 334.860 C 296.269 335.815,295.358 336.401,294.761 336.404 C 294.145 336.406,293.298 336.979,292.400 338.000 C 291.539 338.979,290.648 339.594,290.085 339.596 C 289.564 339.598,288.450 340.291,287.504 341.200 C 286.562 342.105,285.446 342.800,284.933 342.800 C 284.436 342.800,283.835 343.160,283.600 343.600 C 283.321 344.121,282.762 344.400,282.000 344.400 C 281.238 344.400,280.679 344.679,280.400 345.200 C 280.121 345.721,279.562 346.000,278.800 346.000 C 278.038 346.000,277.479 346.279,277.200 346.800 C 276.962 347.246,276.362 347.600,275.848 347.600 C 275.340 347.600,274.598 347.960,274.200 348.400 C 273.802 348.840,273.007 349.200,272.434 349.200 C 271.826 349.200,271.185 349.533,270.893 350.000 C 270.590 350.485,269.960 350.800,269.293 350.800 C 268.626 350.800,267.996 351.115,267.693 351.600 C 267.390 352.085,266.760 352.400,266.093 352.400 C 265.426 352.400,264.796 352.715,264.493 353.200 C 264.107 353.818,263.560 354.000,262.093 354.000 C 260.626 354.000,260.079 354.182,259.693 354.800 C 259.390 355.285,258.760 355.600,258.093 355.600 C 257.426 355.600,256.796 355.915,256.493 356.400 C 256.103 357.025,255.560 357.200,254.016 357.200 C 252.664 357.200,251.932 357.392,251.700 357.808 C 251.472 358.215,250.443 358.500,248.580 358.671 C 246.538 358.860,245.661 359.123,245.277 359.664 C 244.865 360.245,244.226 360.400,242.239 360.400 C 240.232 360.400,239.578 360.562,239.000 361.200 C 238.467 361.789,237.768 362.000,236.348 362.000 C 235.125 362.000,233.940 362.292,233.110 362.799 C 232.023 363.461,231.092 363.597,227.631 363.599 C 224.224 363.600,223.322 363.728,222.690 364.300 C 221.548 365.334,206.930 365.769,189.541 365.285 C 180.845 365.043,179.170 364.899,178.541 364.340 C 177.966 363.828,176.758 363.648,173.140 363.538 C 169.555 363.429,168.310 363.247,167.740 362.746 C 167.314 362.371,166.027 362.018,164.706 361.915 C 163.344 361.808,162.113 361.464,161.675 361.068 C 161.192 360.631,160.243 360.400,158.930 360.400 C 157.432 360.400,156.741 360.197,156.200 359.600 C 155.622 358.961,154.968 358.800,152.952 358.800 C 150.838 358.800,150.359 358.670,150.000 358.000 C 149.670 357.383,149.162 357.200,147.782 357.200 C 146.487 357.200,145.803 356.979,145.307 356.400 C 144.930 355.960,144.250 355.600,143.796 355.600 C 143.341 355.600,142.263 355.240,141.400 354.800 C 140.537 354.360,139.417 354.000,138.912 354.000 C 138.406 354.000,137.684 353.640,137.307 353.200 C 136.930 352.760,136.210 352.400,135.707 352.400 C 135.204 352.400,134.484 352.040,134.107 351.600 C 133.730 351.160,133.036 350.800,132.565 350.800 C 132.094 350.800,131.279 350.468,130.754 350.061 C 130.229 349.655,129.135 349.218,128.323 349.090 C 126.989 348.880,125.132 347.844,123.682 346.500 C 123.386 346.225,122.824 346.000,122.433 346.000 C 122.043 346.000,121.398 345.640,121.000 345.200 C 120.602 344.760,119.942 344.400,119.534 344.400 C 119.126 344.400,118.484 344.040,118.107 343.600 C 117.730 343.160,117.019 342.800,116.527 342.800 C 116.034 342.800,115.309 342.466,114.916 342.059 C 114.522 341.651,113.304 340.800,112.208 340.167 C 111.113 339.534,109.898 338.698,109.508 338.308 C 109.119 337.919,108.613 337.600,108.384 337.600 C 107.871 337.600,105.949 336.230,104.036 334.502 C 103.246 333.788,102.314 333.203,101.963 333.202 C 101.613 333.201,99.903 331.762,98.163 330.004 C 96.223 328.044,94.676 326.807,94.161 326.804 C 92.987 326.798,74.804 308.638,74.790 307.457 C 74.784 306.928,73.559 305.375,71.592 303.400 C 69.838 301.640,68.403 299.907,68.402 299.549 C 68.401 299.190,67.320 297.759,66.000 296.367 C 64.680 294.976,63.600 293.486,63.600 293.056 C 63.600 292.627,62.880 291.569,62.000 290.707 C 60.994 289.721,60.400 288.774,60.400 288.157 C 60.400 287.617,60.139 287.075,59.819 286.952 C 59.500 286.830,59.040 286.127,58.797 285.390 C 58.554 284.654,57.735 283.375,56.977 282.547 C 56.220 281.720,55.600 280.669,55.600 280.211 C 55.600 279.753,55.240 279.070,54.800 278.693 C 54.360 278.316,54.000 277.562,54.000 277.018 C 54.000 276.438,53.669 275.851,53.200 275.600 C 52.701 275.333,52.400 274.762,52.400 274.082 C 52.400 273.426,52.082 272.794,51.600 272.493 C 51.100 272.181,50.800 271.560,50.800 270.839 C 50.800 270.183,50.541 269.586,50.200 269.455 C 49.850 269.321,49.600 268.722,49.600 268.016 C 49.600 267.240,49.313 266.628,48.800 266.307 C 48.239 265.957,48.000 265.374,48.000 264.358 C 48.000 263.514,47.666 262.483,47.200 261.891 C 46.760 261.331,46.400 260.409,46.400 259.840 C 46.400 259.240,46.065 258.597,45.600 258.307 C 44.982 257.921,44.800 257.374,44.800 255.907 C 44.800 254.440,44.618 253.893,44.000 253.507 C 43.383 253.122,43.200 252.574,43.200 251.118 C 43.200 249.638,43.027 249.135,42.400 248.800 C 41.766 248.461,41.600 247.962,41.600 246.400 C 41.600 244.838,41.434 244.339,40.800 244.000 C 40.118 243.635,40.000 243.162,40.000 240.800 C 40.000 238.438,39.882 237.965,39.200 237.600 C 38.492 237.221,38.400 236.762,38.400 233.600 C 38.400 230.488,38.301 229.975,37.633 229.617 C 36.952 229.253,36.850 228.649,36.733 224.244 C 36.625 220.205,36.470 219.138,35.900 218.509 C 34.741 217.230,34.834 180.392,36.000 178.909 C 36.686 178.037,36.800 177.286,36.800 173.642 C 36.800 169.826,36.882 169.342,37.600 168.893 C 38.301 168.455,38.400 167.960,38.400 164.893 C 38.400 161.826,38.499 161.331,39.200 160.893 C 39.872 160.473,40.000 159.960,40.000 157.693 C 40.000 155.426,40.128 154.912,40.800 154.493 C 41.418 154.107,41.600 153.560,41.600 152.093 C 41.600 150.626,41.782 150.079,42.400 149.693 C 43.000 149.318,43.200 148.760,43.200 147.459 C 43.200 146.232,43.434 145.512,44.000 145.000 C 44.558 144.495,44.800 143.768,44.800 142.600 C 44.800 141.432,45.042 140.705,45.600 140.200 C 46.070 139.775,46.401 138.965,46.403 138.238 C 46.404 137.557,46.763 136.460,47.200 135.800 C 47.637 135.140,47.996 134.223,47.997 133.762 C 47.999 133.301,48.360 132.598,48.800 132.200 C 49.240 131.802,49.600 131.076,49.600 130.587 C 49.600 130.098,49.870 129.474,50.200 129.200 C 50.530 128.926,50.800 128.272,50.800 127.747 C 50.800 127.222,51.160 126.484,51.600 126.107 C 52.040 125.730,52.400 125.040,52.400 124.573 C 52.400 124.106,52.760 123.398,53.200 123.000 C 53.640 122.602,54.000 121.882,54.000 121.400 C 54.000 120.918,54.360 120.198,54.800 119.800 C 55.240 119.402,55.600 118.685,55.600 118.208 C 55.600 117.730,56.050 116.917,56.600 116.400 C 57.150 115.883,57.600 115.195,57.600 114.871 C 57.600 114.547,58.230 113.514,59.000 112.574 C 59.770 111.634,60.400 110.527,60.400 110.114 C 60.400 109.701,61.120 108.659,62.000 107.800 C 62.880 106.941,63.600 105.861,63.600 105.400 C 63.600 104.939,64.320 103.859,65.200 103.000 C 66.080 102.141,66.800 101.081,66.800 100.645 C 66.800 100.187,68.109 98.557,69.900 96.785 C 73.263 93.456,74.800 91.543,74.800 90.684 C 74.800 89.782,94.631 70.400,95.554 70.400 C 96.021 70.400,97.327 69.396,98.637 68.030 C 99.887 66.726,101.363 65.545,101.918 65.406 C 102.472 65.267,104.008 64.174,105.331 62.977 C 106.654 61.779,108.009 60.800,108.342 60.800 C 108.676 60.800,109.358 60.415,109.859 59.944 C 110.772 59.087,111.905 58.357,113.400 57.663 C 113.840 57.459,114.543 56.911,114.962 56.446 C 115.381 55.981,116.111 55.600,116.584 55.600 C 117.056 55.600,118.046 54.978,118.782 54.218 C 119.519 53.459,120.621 52.727,121.233 52.593 C 121.844 52.458,122.550 52.102,122.800 51.800 C 123.050 51.498,123.770 51.138,124.400 51.000 C 125.030 50.862,125.759 50.490,126.021 50.174 C 126.283 49.858,126.898 49.600,127.387 49.600 C 127.876 49.600,128.602 49.240,129.000 48.800 C 129.505 48.242,130.232 48.000,131.400 48.000 C 132.568 48.000,133.295 47.758,133.800 47.200 C 134.198 46.760,134.918 46.400,135.400 46.400 C 135.882 46.400,136.602 46.040,137.000 45.600 C 137.398 45.160,138.148 44.800,138.666 44.800 C 139.184 44.800,139.916 44.440,140.293 44.000 C 140.772 43.440,141.473 43.200,142.627 43.200 C 143.768 43.200,144.499 42.954,145.000 42.400 C 145.512 41.834,146.232 41.600,147.459 41.600 C 148.760 41.600,149.318 41.400,149.693 40.800 C 150.075 40.187,150.626 40.000,152.042 40.000 C 153.286 40.000,154.225 39.738,154.909 39.200 C 155.650 38.617,156.532 38.400,158.160 38.400 C 159.960 38.400,160.490 38.245,160.893 37.600 C 161.312 36.929,161.826 36.800,164.074 36.800 C 166.248 36.800,166.855 36.657,167.284 36.045 C 167.741 35.391,168.460 35.270,172.635 35.145 C 176.564 35.027,177.587 34.870,178.157 34.300 C 178.781 33.677,179.871 33.595,188.129 33.553 C 193.228 33.527,197.940 33.361,198.600 33.184 C 199.260 33.007,200.430 32.957,201.200 33.071 C 201.970 33.186,207.127 33.363,212.660 33.465 M159.200 75.061 C 158.870 75.170,158.240 75.416,157.800 75.608 C 156.081 76.360,151.722 78.000,151.444 78.000 C 151.142 78.000,147.067 79.786,146.000 80.386 C 145.670 80.572,143.556 81.673,141.303 82.833 C 139.050 83.993,136.828 85.344,136.366 85.836 L 135.526 86.731 139.214 93.065 C 141.242 96.549,143.239 99.940,143.653 100.600 C 144.066 101.260,144.685 102.340,145.029 103.000 C 145.373 103.660,146.091 104.920,146.625 105.800 C 147.158 106.680,147.878 107.940,148.225 108.600 C 148.571 109.260,149.285 110.520,149.811 111.400 C 150.337 112.280,151.046 113.540,151.387 114.200 C 151.727 114.860,152.442 116.120,152.975 117.000 C 153.509 117.880,154.234 119.140,154.587 119.800 C 154.939 120.460,155.627 121.663,156.114 122.474 C 160.264 129.380,163.992 136.245,163.826 136.676 C 163.663 137.100,158.867 137.200,138.618 137.200 L 113.611 137.200 112.990 138.500 C 112.208 140.136,111.013 142.247,109.989 143.800 C 109.554 144.460,108.916 145.540,108.572 146.200 C 108.227 146.860,107.552 148.055,107.073 148.855 C 106.593 149.655,105.425 151.675,104.477 153.345 C 103.530 155.015,102.585 156.486,102.377 156.614 C 101.825 156.955,101.917 158.439,102.536 159.169 C 102.830 159.516,104.277 161.960,105.752 164.600 C 107.226 167.240,108.597 169.670,108.797 170.000 C 108.997 170.330,110.655 173.180,112.481 176.333 C 114.306 179.486,116.196 182.726,116.681 183.533 C 117.165 184.340,117.691 185.270,117.850 185.600 C 118.102 186.125,120.400 190.157,123.053 194.729 C 124.674 197.522,125.970 200.203,126.085 201.000 C 126.199 201.792,125.915 201.802,98.400 202.000 L 70.600 202.200 70.485 206.400 C 70.421 208.710,70.572 211.860,70.820 213.400 C 71.067 214.940,71.517 218.000,71.818 220.200 C 72.354 224.103,72.949 226.882,73.641 228.700 L 73.983 229.600 111.291 229.605 C 131.811 229.608,148.997 229.717,149.482 229.847 C 150.521 230.126,150.404 231.891,149.232 233.600 C 148.855 234.150,148.415 234.870,148.254 235.200 C 148.093 235.530,147.565 236.460,147.081 237.267 C 146.596 238.074,144.670 241.374,142.800 244.600 C 140.930 247.826,139.007 251.126,138.527 251.933 C 138.048 252.740,137.371 253.940,137.025 254.600 C 136.678 255.260,135.958 256.520,135.425 257.400 C 134.891 258.280,134.171 259.540,133.825 260.200 C 133.478 260.860,132.758 262.120,132.225 263.000 C 131.691 263.880,130.971 265.140,130.625 265.800 C 130.278 266.460,129.558 267.720,129.025 268.600 C 128.491 269.480,127.771 270.740,127.425 271.400 C 127.078 272.060,126.355 273.320,125.818 274.200 C 125.281 275.080,124.655 276.160,124.427 276.600 C 124.200 277.040,123.561 278.120,123.007 279.000 C 122.454 279.880,121.640 281.320,121.198 282.200 C 120.757 283.080,120.036 284.340,119.597 285.000 C 119.158 285.660,118.529 286.740,118.199 287.400 C 117.870 288.060,117.151 289.320,116.601 290.200 C 116.051 291.080,115.255 292.545,114.833 293.456 C 114.411 294.367,113.878 295.228,113.648 295.370 C 113.220 295.635,113.861 297.600,114.375 297.600 C 114.511 297.600,115.247 298.144,116.011 298.809 C 116.775 299.475,117.659 300.240,117.976 300.509 C 118.670 301.100,122.152 303.813,123.997 305.200 C 124.728 305.750,125.527 306.397,125.772 306.637 C 126.016 306.877,126.663 307.308,127.208 307.594 C 128.280 308.156,131.921 310.440,133.702 311.667 C 135.068 312.609,136.183 312.144,137.061 310.268 C 137.388 309.571,138.048 308.339,138.527 307.532 C 139.007 306.725,140.480 304.227,141.800 301.982 C 143.120 299.736,144.599 297.247,145.086 296.450 C 145.573 295.652,146.261 294.460,146.613 293.800 C 146.966 293.140,147.689 291.880,148.220 291.000 C 148.750 290.120,149.404 288.950,149.672 288.400 C 149.940 287.850,151.699 284.740,153.580 281.489 C 155.461 278.238,157.321 274.998,157.713 274.289 C 158.106 273.580,158.859 272.280,159.386 271.400 C 159.913 270.520,160.612 269.260,160.939 268.600 C 161.265 267.940,161.957 266.889,162.476 266.265 L 163.420 265.130 164.649 267.065 C 165.325 268.129,166.004 269.270,166.158 269.600 C 166.312 269.930,166.835 270.854,167.319 271.654 C 168.657 273.864,174.463 284.012,175.297 285.600 C 175.702 286.370,176.463 287.720,176.989 288.600 C 177.515 289.480,178.229 290.740,178.575 291.400 C 178.922 292.060,179.642 293.320,180.175 294.200 C 180.709 295.080,181.427 296.340,181.772 297.000 C 182.116 297.660,182.714 298.678,183.099 299.261 C 183.485 299.845,184.506 301.555,185.368 303.061 C 186.231 304.568,187.380 306.475,187.921 307.300 L 188.906 308.800 200.377 308.800 C 212.472 308.800,212.687 308.770,213.717 306.916 C 214.326 305.818,220.704 294.831,221.873 292.867 C 222.352 292.060,223.029 290.860,223.377 290.200 C 225.275 286.598,231.655 275.468,231.976 275.200 C 232.108 275.090,232.446 274.550,232.727 274.000 C 233.009 273.450,233.679 272.280,234.216 271.400 C 234.754 270.520,235.463 269.260,235.792 268.600 C 236.120 267.940,236.808 266.900,237.319 266.288 L 238.249 265.176 239.426 267.088 C 240.073 268.140,240.830 269.360,241.109 269.800 C 241.388 270.240,241.867 271.140,242.173 271.800 C 242.479 272.460,242.880 273.148,243.065 273.330 C 243.249 273.511,244.030 274.793,244.800 276.178 C 246.051 278.427,248.561 282.864,250.470 286.200 C 250.848 286.860,251.449 287.940,251.806 288.600 C 252.163 289.260,252.891 290.520,253.425 291.400 C 253.958 292.280,254.678 293.540,255.025 294.200 C 255.371 294.860,256.048 296.064,256.527 296.875 C 260.892 304.255,263.917 309.467,264.503 310.618 C 265.325 312.234,266.597 312.443,268.316 311.245 C 269.262 310.586,270.766 309.628,274.800 307.117 C 276.989 305.754,287.020 297.510,287.437 296.731 C 287.796 296.060,287.702 295.586,286.941 294.251 C 286.423 293.343,285.718 292.060,285.373 291.400 C 285.027 290.740,284.309 289.480,283.775 288.600 C 283.242 287.720,282.522 286.460,282.175 285.800 C 281.829 285.140,281.109 283.880,280.575 283.000 C 280.042 282.120,279.322 280.860,278.975 280.200 C 278.629 279.540,277.914 278.280,277.387 277.400 C 276.861 276.520,276.027 275.080,275.535 274.200 C 275.043 273.320,274.332 272.060,273.955 271.400 C 273.578 270.740,272.982 269.660,272.632 269.000 C 272.281 268.340,271.552 267.080,271.011 266.200 C 270.471 265.320,269.739 264.060,269.387 263.400 C 269.034 262.740,268.309 261.480,267.775 260.600 C 267.242 259.720,266.522 258.460,266.175 257.800 C 265.829 257.140,265.152 255.939,264.673 255.132 C 264.193 254.324,262.756 251.894,261.480 249.732 C 260.204 247.569,258.995 245.530,258.793 245.200 C 258.591 244.870,257.475 242.928,256.313 240.884 C 250.430 230.539,250.304 230.261,251.352 229.940 C 251.818 229.797,268.970 229.662,289.467 229.640 C 331.051 229.595,327.870 229.790,328.219 227.265 C 328.361 226.239,328.720 224.410,329.019 223.200 C 329.317 221.990,329.757 219.020,329.996 216.600 C 330.235 214.180,330.603 211.120,330.813 209.800 C 331.548 205.171,331.347 202.836,330.174 202.390 C 329.544 202.151,318.653 202.000,301.947 202.000 L 274.746 202.000 275.015 201.100 C 275.163 200.605,278.460 194.653,282.342 187.872 C 286.224 181.092,290.030 174.401,290.800 173.002 C 291.570 171.604,292.351 170.311,292.535 170.130 C 292.720 169.948,293.126 169.260,293.438 168.600 C 293.750 167.940,294.442 166.680,294.975 165.800 C 295.509 164.920,296.227 163.660,296.573 163.000 C 296.918 162.340,297.650 161.007,298.200 160.037 C 299.553 157.653,299.467 157.327,295.991 151.600 C 295.790 151.270,294.891 149.740,293.993 148.200 C 293.095 146.660,292.008 144.860,291.579 144.200 C 291.150 143.540,290.516 142.460,290.172 141.800 C 289.827 141.140,289.140 139.880,288.646 139.000 L 287.746 137.400 262.920 137.297 C 243.534 137.217,238.001 137.083,237.674 136.690 C 237.367 136.319,238.093 134.757,240.416 130.793 C 242.153 127.827,243.758 125.040,243.981 124.600 C 244.204 124.160,244.840 123.080,245.396 122.200 C 245.951 121.320,246.686 120.060,247.030 119.400 C 247.374 118.740,248.089 117.480,248.619 116.600 C 249.150 115.720,249.708 114.730,249.860 114.400 C 250.142 113.787,251.908 110.690,253.473 108.064 C 253.952 107.259,254.629 106.060,254.975 105.400 C 255.322 104.740,256.048 103.480,256.589 102.600 C 257.129 101.720,257.861 100.460,258.213 99.800 C 258.566 99.140,259.248 97.935,259.727 97.122 C 266.726 85.270,266.584 86.293,261.597 83.649 C 255.772 80.560,250.342 78.000,249.618 78.000 C 249.346 78.000,248.646 77.732,248.062 77.405 C 247.088 76.860,245.044 76.078,242.335 75.215 C 241.010 74.793,239.830 75.538,238.991 77.327 C 238.663 78.027,237.958 79.320,237.425 80.200 C 236.891 81.080,236.171 82.340,235.825 83.000 C 235.478 83.660,234.758 84.920,234.225 85.800 C 233.691 86.680,232.971 87.940,232.625 88.600 C 232.278 89.260,231.591 90.474,231.097 91.299 C 230.604 92.123,228.977 94.913,227.482 97.499 C 225.987 100.084,224.602 102.470,224.404 102.800 C 224.205 103.130,223.127 105.020,222.008 107.000 C 220.889 108.980,219.808 110.870,219.606 111.200 C 219.404 111.530,217.745 114.380,215.919 117.533 C 214.094 120.686,212.212 123.926,211.738 124.733 C 211.263 125.540,210.588 126.695,210.238 127.300 C 209.887 127.905,209.313 128.895,208.962 129.500 C 208.612 130.105,207.937 131.262,207.462 132.071 C 203.942 138.073,202.400 140.847,202.400 141.174 C 202.400 141.568,200.838 142.800,200.339 142.800 C 200.183 142.800,199.315 141.495,198.409 139.900 C 196.746 136.972,195.862 135.473,194.398 133.100 C 193.957 132.385,193.315 131.260,192.971 130.600 C 192.627 129.940,191.952 128.738,191.473 127.929 C 190.993 127.120,189.649 124.780,188.487 122.729 C 187.325 120.678,186.208 118.730,186.006 118.400 C 185.804 118.070,184.145 115.220,182.319 112.067 C 180.494 108.913,178.711 105.853,178.357 105.267 C 177.652 104.099,176.189 101.571,175.309 100.000 C 175.000 99.450,174.322 98.280,173.802 97.400 C 173.281 96.520,172.571 95.260,172.225 94.600 C 171.878 93.940,171.158 92.680,170.625 91.800 C 170.091 90.920,169.366 89.660,169.013 89.000 C 168.661 88.340,167.929 87.080,167.389 86.200 C 166.848 85.320,166.122 84.060,165.775 83.400 C 165.429 82.740,164.711 81.480,164.180 80.600 C 163.650 79.720,162.998 78.550,162.732 78.000 C 162.205 76.909,160.387 74.781,160.025 74.832 C 159.901 74.849,159.530 74.952,159.200 75.061 M202.382 146.755 C 202.615 147.330,203.355 148.683,204.027 149.762 C 205.402 151.969,207.698 155.990,208.616 157.800 C 208.951 158.460,209.992 160.260,210.930 161.800 L 212.635 164.600 237.471 164.703 L 262.308 164.806 262.537 165.682 C 262.663 166.164,262.570 166.795,262.330 167.084 C 261.914 167.585,261.237 168.755,259.832 171.400 C 259.481 172.060,258.791 173.272,258.297 174.094 C 257.804 174.916,254.160 181.180,250.200 188.015 C 246.240 194.849,242.604 201.107,242.121 201.920 C 241.637 202.734,241.048 203.826,240.813 204.347 C 240.577 204.868,240.028 205.747,239.592 206.301 C 238.575 207.593,238.558 209.984,239.556 211.253 C 239.971 211.781,240.606 212.840,240.966 213.607 C 241.327 214.373,241.842 215.366,242.111 215.813 C 242.380 216.261,243.860 218.845,245.400 221.556 C 246.940 224.268,248.491 226.962,248.847 227.543 C 250.058 229.521,249.647 229.600,238.113 229.600 C 226.247 229.600,225.814 229.689,224.641 232.366 C 224.295 233.155,223.649 234.340,223.205 235.000 C 222.762 235.660,222.117 236.740,221.773 237.400 C 221.170 238.558,220.351 240.012,218.394 243.400 C 217.885 244.280,217.212 245.450,216.897 246.000 C 216.582 246.550,215.937 247.660,215.462 248.467 C 214.988 249.274,213.106 252.514,211.281 255.667 C 209.455 258.820,207.796 261.670,207.593 262.000 C 207.391 262.330,205.949 264.877,204.387 267.660 C 200.751 274.143,200.632 274.176,198.008 269.457 C 196.889 267.446,195.809 265.530,195.608 265.200 C 195.407 264.870,193.387 261.392,191.121 257.470 C 188.854 253.549,186.685 249.859,186.299 249.270 C 185.914 248.682,185.316 247.660,184.972 247.000 C 184.627 246.340,183.909 245.080,183.375 244.200 C 182.842 243.320,182.122 242.060,181.775 241.400 C 181.429 240.740,180.709 239.480,180.175 238.600 C 179.642 237.720,178.919 236.460,178.568 235.800 C 177.217 233.257,176.553 232.155,175.618 230.900 L 174.650 229.600 163.358 229.600 C 151.674 229.600,150.979 229.500,152.188 228.000 C 152.454 227.670,153.877 225.240,155.352 222.600 C 156.826 219.960,158.196 217.530,158.395 217.200 C 162.959 209.638,163.373 208.436,162.008 206.701 C 161.572 206.147,161.023 205.268,160.787 204.747 C 160.552 204.226,159.963 203.141,159.479 202.335 C 158.996 201.529,156.113 196.579,153.073 191.335 C 150.034 186.091,147.385 181.530,147.187 181.200 C 146.988 180.870,145.875 178.922,144.713 176.871 C 143.551 174.820,142.207 172.480,141.727 171.671 C 141.248 170.862,140.576 169.660,140.236 169.000 C 139.895 168.340,139.388 167.485,139.110 167.100 C 137.590 164.997,137.373 165.017,164.110 164.800 C 177.653 164.690,188.811 164.510,188.906 164.400 C 189.001 164.290,190.140 162.341,191.439 160.068 C 192.738 157.795,194.193 155.275,194.673 154.468 C 195.152 153.661,195.829 152.460,196.175 151.800 C 196.522 151.140,197.242 149.880,197.775 149.000 C 198.309 148.120,199.018 146.815,199.352 146.099 C 200.075 144.552,201.628 144.888,202.382 146.755 " stroke="none" fill="transparent" fill-rule="evenodd"></path></g></svg>